<?xml version="1.0" encoding="UTF-8"?>
<svg version="1.1" xmlns="http://www.w3.org/2000/svg" width="512" height="512">
<path d="M0 0 C1.48768684 0.66183164 2.97741124 1.31909527 4.46875 1.97265625 C6.02186521 2.66696721 7.57395886 3.36356801 9.125 4.0625 C10.22835693 4.55459961 10.22835693 4.55459961 11.35400391 5.05664062 C18.30185076 8.3075127 18.30185076 8.3075127 20 12 C21.16493928 18.99873677 17.87114885 24.68693136 15 30.9375 C14.52304688 32.00291016 14.04609375 33.06832031 13.5546875 34.16601562 C12.38125124 36.78277849 11.19616536 39.39356842 10 42 C10.91434814 42.41958984 10.91434814 42.41958984 11.84716797 42.84765625 C25.55525644 49.14371017 39.23104565 55.5037811 52.875 61.9375 C63.32003975 66.8624117 73.77286731 71.76861461 84.25 76.625 C85.38083008 77.14916504 86.51166016 77.67333008 87.67675781 78.21337891 C88.80694336 78.73722168 89.93712891 79.26106445 91.1015625 79.80078125 C98.28053631 83.12839621 105.45425212 86.46720603 112.625 89.8125 C113.54832123 90.24322311 113.54832123 90.24322311 114.49029541 90.68264771 C125.43739759 95.79099819 136.36718689 100.93582241 147.29510498 106.08505249 C159.20606886 111.69642872 171.1397561 117.25689183 183.0859375 122.79296875 C190.35475913 126.16207898 197.61565343 129.54803776 204.875 132.9375 C205.49765747 133.22820374 206.12031494 133.51890747 206.76184082 133.81842041 C209.91389482 135.29007881 213.06585868 136.76193013 216.21777344 138.23388672 C219.98083466 139.99117103 223.74426418 141.74766543 227.5078125 143.50390625 C228.43533325 143.93672913 228.43533325 143.93672913 229.3815918 144.3782959 C231.25438829 145.25221064 233.12719258 146.12610867 235 147 C249.05718685 153.55937903 249.05718685 153.55937903 255.67602539 156.65057373 C256.93882107 157.24026628 258.20167915 157.82982521 259.46459961 158.41925049 C262.5931067 159.87944252 265.72077753 161.34136784 268.84667969 162.80712891 C274.48809264 165.44947646 280.13572708 168.07278531 285.82089233 170.61991882 C288.36135667 171.75886291 290.89724272 172.90781793 293.43304443 174.05709839 C295.18135838 174.84410101 296.93651223 175.61585475 298.69189453 176.38696289 C312.38255231 182.60095137 323.35356343 191.62798469 328.9375 205.875 C331.08303934 211.91160221 332.12380454 216.56216371 332 223 C337.60210895 218.70599771 341.24613818 214.5271511 344.48046875 208.234375 C346.39568264 205.4181736 347.84653405 204.30242158 351 203 C356.07972359 203.39602557 360.09304612 204.68023804 364.703125 206.80078125 C365.3075946 207.07842819 365.91206421 207.35607513 366.53485107 207.64213562 C367.80075536 208.22680308 369.06451888 208.81612645 370.32617188 209.40991211 C372.25254206 210.31369264 374.1879227 211.19561535 376.125 212.07617188 C377.35997326 212.64975533 378.59436972 213.22458266 379.828125 213.80078125 C380.9409082 214.31809814 382.05369141 214.83541504 383.20019531 215.3684082 C386.03951122 217.02302524 387.41204094 218.15142283 389 221 C390.72911251 228.3272387 387.39525303 234.54551 384.0625 240.875 C383.56105469 241.84590576 383.05960937 242.81681152 382.54296875 243.81713867 C373.21196187 261.43267054 359.30642452 274.22822365 339.99609375 280.3203125 C336.68608085 281.30265749 333.35396821 282.1793482 330 283 C330.75925781 283.37511719 331.51851563 283.75023437 332.30078125 284.13671875 C333.29464844 284.64847656 334.28851563 285.16023438 335.3125 285.6875 C336.29863281 286.18636719 337.28476562 286.68523437 338.30078125 287.19921875 C341.38236136 289.25509202 342.63606617 290.55815976 344 294 C343.63019514 299.80562104 341.78528999 304.24309016 339.2890625 309.3828125 C338.9202597 310.16010712 338.55145691 310.93740173 338.17147827 311.73825073 C337.39410827 313.37235945 336.61225761 315.00434341 335.82617188 316.63427734 C334.62727728 319.12027788 333.44137197 321.61213621 332.2578125 324.10546875 C331.4981417 325.69827262 330.73774929 327.29073256 329.9765625 328.8828125 C329.44671249 329.99234787 329.44671249 329.99234787 328.90615845 331.1242981 C324.05563966 341.17056884 324.05563966 341.17056884 321.25 343.375 C316.98286587 344.56031504 313.02975719 343.3572627 308.9375 341.9375 C300.75423267 339.52306752 291.10473364 339.91918467 283.3828125 343.55078125 C273.28975742 349.68934426 268.94105641 356.39393075 266.06439209 367.66619873 C265.24935263 371.2220394 264.50077101 374.7910995 263.76677132 378.36445045 C263.27407724 380.76091969 262.76954299 383.15463882 262.2620697 385.54801941 C261.00412865 391.49153224 259.76412829 397.43874866 258.52716064 403.38665771 C257.4790873 408.42472051 256.42227242 413.46078911 255.35354424 418.49451256 C254.8615992 420.82838354 254.3822446 423.16460037 253.90333557 425.50117493 C250.3470112 442.49143939 245.06033834 457.50218973 230.63671875 468.28125 C219.46034675 475.56658879 206.46368612 478.93975294 193.20800781 476.48242188 C186.094087 474.75037876 179.71644573 472.35086682 173.125 469.1875 C172.12339844 468.71755615 171.12179687 468.2476123 170.08984375 467.76342773 C167.9072035 466.73873662 165.72661102 465.70967482 163.54785156 464.67675781 C159.72426595 462.86968473 155.89096627 461.08459713 152.0546875 459.3046875 C144.69501141 455.88678247 137.33760634 452.4651101 130 449 C128.72382813 448.41001221 128.72382813 448.41001221 127.421875 447.80810547 C123.95731128 446.16383973 122.17285978 445.25928966 120 442 C119.41634678 435.58282311 120.73372921 431.15057553 123.3046875 425.32421875 C123.65558945 424.49727509 124.00649139 423.67033142 124.36802673 422.81832886 C125.52393377 420.10224903 126.69945717 417.39513168 127.875 414.6875 C128.68729618 412.78767084 129.49806354 410.88718736 130.30737305 408.98608398 C131.99998888 405.01324481 133.69924677 401.04334224 135.40283203 397.07519531 C139.20896884 388.19284107 142.92563611 379.27308946 146.64678955 370.35488892 C148.49656235 365.92387 150.35216865 361.49529625 152.20703125 357.06640625 C155.14529221 350.04729129 158.07730878 343.02561491 161 336 C158.77231973 334.87198085 156.54312686 333.74717202 154.3125 332.625 C153.60931641 332.27066895 152.90613281 331.91633789 152.18164062 331.55126953 C147.99630646 329.4558847 143.78926445 327.42229124 139.54296875 325.453125 C138.62281982 325.02435059 137.7026709 324.59557617 136.75463867 324.15380859 C134.96024005 323.32078015 133.16236239 322.49519244 131.3605957 321.67822266 C119.27509796 316.05291385 111.11320649 308.4388581 106 296 C100.48176339 279.99711382 105.9976001 263.72928967 110 248 C108.76894531 247.62617188 107.53789062 247.25234375 106.26953125 246.8671875 C100.14848942 244.82246606 94.46632182 241.97541324 88.6875 239.125 C86.27161762 237.9475653 83.85513837 236.77146996 81.4375 235.59765625 C80.82102097 235.29788376 80.20454193 234.99811127 79.56938171 234.68925476 C73.1439208 231.57123148 66.67036105 228.55915115 60.1875 225.5625 C59.03386963 225.02890869 57.88023926 224.49531738 56.69165039 223.94555664 C54.32855606 222.85279909 51.96535539 221.76027147 49.60205078 220.66796875 C42.19517608 217.23813495 34.80023842 213.78259828 27.40722656 210.32299805 C21.5209119 207.56958519 15.63087151 204.82538634 9.72491455 202.11430359 C6.95959262 200.84432328 4.19660892 199.569301 1.43377686 198.29391479 C0.11742898 197.68798104 -1.20005511 197.08450872 -2.51873779 196.4836731 C-4.3500152 195.64906905 -6.1770532 194.80518201 -8.00390625 193.9609375 C-9.04361572 193.48446777 -10.0833252 193.00799805 -11.15454102 192.51708984 C-14.71683018 190.61781358 -18.15366566 188.69266868 -20 185 C-20.51198891 179.62411642 -19.02208442 175.88670402 -17 171 C-17.83381699 170.73946335 -17.83381699 170.73946335 -18.68447876 170.47366333 C-24.01799343 168.75895446 -29.04201318 166.73358908 -34.0859375 164.3046875 C-34.82180588 163.95561844 -35.55767426 163.60654938 -36.31584167 163.24690247 C-38.67138675 162.12808337 -41.02334084 161.00196109 -43.375 159.875 C-44.99453563 159.10225428 -46.61424661 158.32987597 -48.23413086 157.55786133 C-50.63048898 156.41573465 -53.02666373 155.27324506 -55.42179871 154.1285553 C-59.75935605 152.05751958 -64.10819598 150.01663679 -68.48046875 148.01953125 C-69.36492676 147.61299316 -70.24938477 147.20645508 -71.16064453 146.78759766 C-72.7060347 146.07977817 -74.25495569 145.37959135 -75.80810547 144.68896484 C-82.25983833 141.71015602 -82.25983833 141.71015602 -84 138 C-84.85576904 131.75747047 -82.74603505 127.47571436 -80 122.0625 C-79.42765625 120.89364258 -79.42765625 120.89364258 -78.84375 119.70117188 C-77.90807109 117.7947261 -76.9557085 115.89648406 -76 114 C-76.66644531 113.90976563 -77.33289063 113.81953125 -78.01953125 113.7265625 C-81.88661214 112.7838665 -85.1600807 111.18831933 -88.6875 109.375 C-89.36361328 109.05660156 -90.03972656 108.73820312 -90.73632812 108.41015625 C-94.44370049 106.49929169 -95.76089753 105.53475359 -97.51953125 101.6015625 C-97.99461432 98.04037068 -97.66738417 95.49400665 -97 92 C-97.68102783 91.68772461 -98.36205566 91.37544922 -99.0637207 91.05371094 C-102.15186471 89.63015637 -105.23213827 88.19031191 -108.3125 86.75 C-109.38435547 86.25886719 -110.45621094 85.76773438 -111.56054688 85.26171875 C-112.58857422 84.77832031 -113.61660156 84.29492188 -114.67578125 83.796875 C-115.62364502 83.35698242 -116.57150879 82.91708984 -117.5480957 82.46386719 C-120.77983019 80.53441583 -122.5104692 78.67339612 -123.57421875 75.03710938 C-124.05967486 65.63767476 -119.07914502 57.66167663 -115 49.5 C-113.87046919 47.19713925 -112.74656978 44.89160274 -111.6237793 42.58544922 C-110.8749915 41.05013329 -110.12254969 39.51659404 -109.36645508 37.98486328 C-107.42405232 34.02968389 -105.56652207 30.05723653 -103.828125 26.0078125 C-103.47814453 25.19469604 -103.12816406 24.38157959 -102.76757812 23.54382324 C-102.10959578 21.99998006 -101.46173179 20.4517679 -100.82617188 18.89855957 C-98.89490492 14.36420129 -96.86635367 11.22604629 -93 8 C-86.48430549 5.82810183 -81.88774995 8.25076139 -76 11 C-74.85789063 11.52980469 -73.71578125 12.05960938 -72.5390625 12.60546875 C-70.25023164 13.66904247 -67.96600674 14.74261 -65.6875 15.828125 C-63.1830988 17.13323342 -63.1830988 17.13323342 -61 17 C-59.78201745 15.34915601 -58.62623934 13.65224555 -57.5 11.9375 C-43.94715512 -7.06090237 -20.06190204 -9.77314621 0 0 Z M-39 20 C-35.08772761 21.83764022 -31.17330189 23.67058813 -27.25683594 25.49926758 C-25.92550851 26.12168744 -24.59477217 26.74537328 -23.26464844 27.37036133 C-21.34985834 28.26979748 -19.43297096 29.1646214 -17.515625 30.05859375 C-16.36352539 30.59798584 -15.21142578 31.13737793 -14.02441406 31.69311523 C-10.90191033 33.13940042 -10.90191033 33.13940042 -7 34 C-5.02 29.38 -3.04 24.76 -1 20 C-12.41670173 14.384759 -29.82612002 6.23918003 -39 20 Z M-82 33 C-87.52326286 43.91431996 -92.83919758 54.909765 -98 66 C-95.90217213 68.09782787 -94.6200793 68.6509396 -91.875 69.625 C-91.15054688 69.88539062 -90.42609375 70.14578125 -89.6796875 70.4140625 C-89.12539062 70.60742188 -88.57109375 70.80078125 -88 71 C-83.91979081 62.93496314 -79.8733024 54.85434546 -76 46.6875 C-75.69763428 46.06029053 -75.39526855 45.43308105 -75.08374023 44.78686523 C-73.76792761 41.98532099 -73 40.13827206 -73 37 C-77.455 35.02 -77.455 35.02 -82 33 Z M-62 68 C-62.53109375 69.0621875 -63.0621875 70.124375 -63.609375 71.21875 C-65.02604167 74.05208333 -66.44270833 76.88541667 -67.859375 79.71875 C-68.20935547 80.42128906 -68.55933594 81.12382813 -68.91992188 81.84765625 C-69.65775139 83.31797836 -70.40425624 84.78397078 -71.15820312 86.24609375 C-73.24525985 89.93157653 -73.24525985 89.93157653 -74 94 C-74.66 94.33 -75.32 94.66 -76 95 C-75.20980469 95.35489502 -74.41960937 95.70979004 -73.60546875 96.07543945 C-56.5481075 103.75003363 -39.57057762 111.57365701 -22.6875 119.625 C-21.41380554 120.23237503 -21.41380554 120.23237503 -20.11437988 120.85202026 C-19.26742554 121.25590973 -18.42047119 121.65979919 -17.54785156 122.07592773 C-4.50346312 128.29559479 8.58215045 134.41722704 21.70214844 140.47607422 C27.42973168 143.12277059 33.15227432 145.78032082 38.875 148.4375 C40.02726074 148.97238037 41.17952148 149.50726074 42.36669922 150.05834961 C54.65844845 155.76627185 66.93840579 161.49939334 79.21777344 167.23388672 C84.85365032 169.86574346 90.49036317 172.49580879 96.12701416 175.12600708 C99.25137712 176.58393113 102.37568581 178.04197146 105.5 179.5 C106.74999974 180.08333389 107.99999974 180.66666722 109.25 181.25 C128 190 128 190 146.75 198.75 C147.36873993 199.03874496 147.98747986 199.32748993 148.62496948 199.62498474 C149.87507225 200.20836671 151.12517397 200.79175091 152.37527466 201.37513733 C155.49869384 202.83274481 158.62213103 204.29031367 161.74560547 205.74780273 C167.38950238 208.38142819 173.03326654 211.0153362 178.67636108 213.65068054 C181.82581835 215.12147775 184.97538094 216.59204931 188.125 218.0625 C189.05895599 218.4985405 189.05895599 218.4985405 190.01177979 218.94338989 C198.96036039 223.12069926 207.915697 227.28322537 216.875 231.4375 C226.9286795 236.09963209 236.96790674 240.79165442 247 245.5 C257.42864603 250.39414598 267.86404524 255.27327287 278.3125 260.125 C279.43205078 260.64513672 280.55160156 261.16527344 281.70507812 261.70117188 C283.79999968 262.6730427 285.89644116 263.64164617 287.99462891 264.60644531 C290.04640725 265.55783043 292.09011945 266.5267577 294.12646484 267.51074219 C295.60107178 268.21312012 295.60107178 268.21312012 297.10546875 268.9296875 C297.9771167 269.35233887 298.84876465 269.77499023 299.74682617 270.21044922 C302.11989453 271.30012739 302.11989453 271.30012739 305 270 C305.91782267 267.06235289 306.63106982 264.25209968 307.26171875 261.25 C307.55499809 259.91908325 307.55499809 259.91908325 307.85420227 258.5612793 C308.26636421 256.67618939 308.67195121 254.78965197 309.0715332 252.90185547 C309.67984494 250.03606342 310.3117663 247.17627679 310.94726562 244.31640625 C311.34518581 242.48208172 311.74171334 240.64745441 312.13671875 238.8125 C312.41789803 237.54164551 312.41789803 237.54164551 312.70475769 236.24511719 C314.99304056 225.28114645 314.22904536 216.66514472 308.75 206.734375 C302.57993815 197.54939657 291.16536397 193.45638111 281.5 188.875 C280.34105225 188.32384521 279.18210449 187.77269043 277.98803711 187.20483398 C275.56113412 186.05200411 273.13228958 184.90336855 270.70263672 183.75634766 C267.60245659 182.29016939 264.51421681 180.8004805 261.42874146 179.3036499 C258.47945595 177.87710428 255.52016558 176.47156865 252.5625 175.0625 C251.46164062 174.52415527 250.36078125 173.98581055 249.2265625 173.43115234 C248.20433594 172.94984863 247.18210937 172.46854492 246.12890625 171.97265625 C245.23244385 171.54218994 244.33598145 171.11172363 243.41235352 170.66821289 C241.0234549 169.763966 241.0234549 169.763966 238.80493164 170.73828125 C236.32305437 172.47321182 234.73258713 174.54868407 232.875 176.9375 C231.69744141 178.39929688 231.69744141 178.39929688 230.49609375 179.890625 C229.24028323 181.45498364 227.98457937 183.01946235 226.73876953 184.59179688 C225.4956337 186.14319971 224.21678185 187.66576566 222.9375 189.1875 C221.80634766 190.57001953 221.80634766 190.57001953 220.65234375 191.98046875 C217.80994109 194.14471348 216.02526363 194.78156102 212.44848633 194.54516602 C206.74708096 193.27572358 201.58619683 190.43814468 196.375 187.875 C195.04505825 187.23533943 193.71431201 186.59734913 192.3828125 185.9609375 C189.62021737 184.6389215 186.86120457 183.30982278 184.10449219 181.97558594 C178.38221478 179.21270039 172.61925635 176.53801528 166.85586548 173.86227417 C163.72101519 172.40575673 160.58916474 170.94281684 157.45703125 169.48046875 C156.20524246 168.89631824 154.9534521 168.31217109 153.70166016 167.72802734 C150.09611997 166.04514256 146.49138243 164.36054269 142.88671875 162.67578125 C131.99558193 157.58700684 121.10109722 152.5059311 110.19140625 147.45703125 C109.34198456 147.06392258 108.49256287 146.6708139 107.61740112 146.26579285 C105.87465755 145.45930251 104.13191053 144.65281963 102.38916016 143.84634399 C87.92888405 137.15445327 73.4869639 130.42632535 59.07592773 123.62902832 C47.37570642 118.11048079 35.65136143 112.64639016 23.9140625 107.20703125 C16.64524115 103.83792116 9.38431808 100.4520228 2.125 97.0625 C1.5066629 96.77379028 0.88832581 96.48508057 0.25125122 96.18762207 C-2.25410134 95.01779048 -4.75942839 93.8479043 -7.26469421 92.67788696 C-11.83074448 90.54554704 -16.39763396 88.41501134 -20.96484375 86.28515625 C-22.28369334 85.67000741 -23.60254101 85.05485444 -24.92138672 84.43969727 C-27.48136816 83.24565968 -30.04162678 82.05221911 -32.60205078 80.85913086 C-37.93941128 78.37088497 -43.27352532 75.87672195 -48.58984375 73.34375 C-49.39381592 72.96138184 -50.19778809 72.57901367 -51.02612305 72.18505859 C-52.45502133 71.50394361 -53.88240577 70.81963857 -55.30786133 70.13134766 C-58.51084556 68.51741222 -58.51084556 68.51741222 -62 68 Z M-60 123 C-60.66 125.31 -61.32 127.62 -62 130 C-52.07571156 135.03053518 -42.08497975 139.91810976 -32.0625 144.75 C-30.91418701 145.30453857 -29.76587402 145.85907715 -28.58276367 146.43041992 C-18.68896164 152.13204736 -18.68896164 152.13204736 -8 155 C-7.01 152.69 -6.02 150.38 -5 148 C-14.92428844 142.96946482 -24.91502025 138.08189024 -34.9375 133.25 C-36.08581299 132.69546143 -37.23412598 132.14092285 -38.41723633 131.56958008 C-43.30599553 129.21773276 -48.19966592 126.87537197 -53.12890625 124.609375 C-54.15286499 124.13709473 -54.15286499 124.13709473 -55.19750977 123.65527344 C-57.15026097 122.82916935 -57.15026097 122.82916935 -60 123 Z M11 156 C9.4905412 159.09965403 7.99409333 162.20541403 6.5 165.3125 C6.07074219 166.19357422 5.64148438 167.07464844 5.19921875 167.98242188 C4.79316406 168.82998047 4.38710937 169.67753906 3.96875 170.55078125 C3.59169922 171.33106689 3.21464844 172.11135254 2.82617188 172.9152832 C1.81578852 175.09108665 1.81578852 175.09108665 2 178 C22.82510222 187.89309275 43.6683787 197.73981381 64.59277344 207.42138672 C70.60818585 210.20840711 76.6171263 213.00927643 82.625 215.8125 C83.24091003 216.09983002 83.85682007 216.38716003 84.49139404 216.68319702 C95.4381346 221.79135496 106.36755697 226.93599678 117.29510498 232.08505249 C126.93403562 236.62605075 136.58334198 241.14324837 146.25 245.625 C147.92280029 246.40061279 147.92280029 246.40061279 149.62939453 247.19189453 C151.89679257 248.24303868 154.16420808 249.29414513 156.43164062 250.34521484 C162.30324641 253.06810373 168.17351798 255.79382447 174.04089355 258.52581787 C175.31965066 259.12089529 176.59869083 259.71536492 177.87805176 260.30914307 C181.92711238 262.18859038 185.96691424 264.08652225 190 266 C191.1446875 266.54027832 192.289375 267.08055664 193.46875 267.63720703 C194.5515625 268.16040527 195.634375 268.68360352 196.75 269.22265625 C198.19632812 269.91693726 198.19632812 269.91693726 199.671875 270.62524414 C202 272 202 272 204 275 C204.33673732 281.45638695 202.00785647 287.24248305 199.44921875 293.03515625 C199.08359329 293.89000107 198.71796783 294.74484589 198.34126282 295.62559509 C197.54925742 297.47360769 196.75180547 299.31929373 195.94946289 301.1628418 C194.21299242 305.15279339 192.5028211 309.15386283 190.79031372 313.15414429 C189.88961123 315.25698588 188.98747013 317.3592118 188.08395386 319.46084595 C183.72137896 329.61378459 179.47058051 339.81180731 175.23672485 350.01895142 C167.26549286 369.23311193 159.20711771 388.40960677 151.08984375 407.5625 C150.71001343 408.459617 150.33018311 409.35673401 149.93884277 410.28103638 C149.23994524 411.93154004 148.54023976 413.58170197 147.83947754 415.23141479 C146.1202251 419.29217171 144.42604623 423.36301108 142.75976562 427.44580078 C142.42319946 428.26831329 142.0866333 429.09082581 141.73986816 429.93826294 C140.88741112 431.94866474 140.88741112 431.94866474 141 434 C161.7947604 443.76242189 161.7947604 443.76242189 182.6875 453.3125 C183.90421387 453.86151978 183.90421387 453.86151978 185.14550781 454.42163086 C193.6820165 458.24632152 202.51526079 459.69970372 211.7421875 457.28125 C213.95723021 456.33085105 215.95191939 455.26805806 218 454 C218.62261719 453.649375 219.24523437 453.29875 219.88671875 452.9375 C230.07621292 446.57182902 232.39091087 435.9758737 235 425 C236.08334202 420.26605337 237.07328476 415.51330153 238.04803276 410.75598717 C238.51060583 408.50355426 238.98028432 406.2527035 239.45191956 404.00215149 C240.78981911 397.61615686 242.12223418 391.22909944 243.43383789 384.83764648 C244.24344332 380.89500577 245.06673315 376.95542804 245.89863777 373.01743507 C246.20943865 371.53353254 246.51525976 370.04857677 246.81567192 368.56253624 C249.72959502 354.16486575 254.51031014 341.23094518 266.75 332.25 C281.40192477 322.72514393 295.0257265 321.38755297 312 323 C313.29935464 320.48287811 314.58954372 317.96170913 315.875 315.4375 C316.23980469 314.73302734 316.60460937 314.02855469 316.98046875 313.30273438 C319.19942197 308.92534485 320.81066956 304.76358139 322 300 C308.93248935 293.28362418 295.61285465 287.12609588 282.27392578 280.97216797 C274.17966626 277.23782732 266.08938066 273.49489544 258 269.75 C257.13052734 269.34759094 256.26105469 268.94518188 255.36523438 268.53057861 C242.14747491 262.41107592 228.96278117 256.22462323 215.79876709 249.990448 C205.39503323 245.06404154 194.96962782 240.18970441 184.51098633 235.38061523 C176.41130145 231.65573858 168.32732203 227.89803984 160.25 224.125 C159.3104245 223.68614975 159.3104245 223.68614975 158.35186768 223.23843384 C155.17257647 221.75335876 151.99346992 220.26788894 148.81445312 218.78222656 C143.16768923 216.14353499 137.51927447 213.50838121 131.87097168 210.87298584 C128.74724569 209.41547123 125.62362839 207.95772374 122.5 206.5 C121.25000052 205.91666555 120.00000052 205.33333222 118.75 204.75 C106.25 198.91666667 93.75 193.08333333 81.25 187.25 C80.32201851 186.81694298 80.32201851 186.81694298 79.37528992 186.37513733 C78.12432145 185.79135069 76.87335506 185.20755958 75.62239075 184.62376404 C72.5122253 183.1723299 69.40202463 181.72097135 66.29174805 180.26977539 C60.49010156 177.56274086 54.68879975 174.85497523 48.88870239 172.1446228 C46.18106248 170.87941294 43.47322858 169.61461855 40.76538086 168.34985352 C39.48794068 167.75305467 38.21059313 167.15605751 36.93334961 166.55883789 C34.03216936 165.20231598 31.12976849 163.84854648 28.22509766 162.49951172 C26.08102316 161.50262258 23.9400341 160.49906941 21.80224609 159.48876953 C20.32812256 158.80016846 20.32812256 158.80016846 18.82421875 158.09765625 C17.96272217 157.69168213 17.10122559 157.28570801 16.21362305 156.86743164 C13.93071858 155.81757578 13.93071858 155.81757578 11 156 Z M357 225 C355.67010061 226.50880963 354.38648491 228.05854071 353.125 229.625 C346.503441 237.16503332 338.48705453 240.44488307 329 243 C328.32944715 245.93666226 327.66340947 248.87422359 327 251.8125 C326.80921875 252.64587891 326.6184375 253.47925781 326.421875 254.33789062 C326.24140625 255.14033203 326.0609375 255.94277344 325.875 256.76953125 C325.70742188 257.50792236 325.53984375 258.24631348 325.3671875 259.00708008 C324.90940192 261.15397948 324.90940192 261.15397948 325 264 C338.56093203 262.99548652 349.49789704 256.27753925 358.84765625 246.6484375 C362.49869692 242.1558684 368 234.8740902 368 229 C366.5437455 228.32880451 365.08492133 227.66318193 363.625 227 C362.40683594 226.443125 362.40683594 226.443125 361.1640625 225.875 C359.08001567 224.87504987 359.08001567 224.87504987 357 225 Z M127 257 C121.2194774 275.3207482 121.2194774 275.3207482 125.125 293.3125 C130.75570802 301.95272437 140.02828562 305.77305914 149.03515625 309.91625977 C151.26555633 310.94467286 153.48443023 311.99543681 155.703125 313.04882812 C157.11916385 313.70968025 158.53580975 314.36923354 159.953125 315.02734375 C160.6156427 315.3417894 161.2781604 315.65623505 161.96075439 315.98020935 C165.85208792 317.83308152 165.85208792 317.83308152 170 317 C171.25824758 314.56758957 172.32942293 312.21271557 173.35546875 309.68359375 C173.66196854 308.95253922 173.96846832 308.22148468 174.28425598 307.46827698 C175.26231472 305.12882591 176.22501388 302.78339503 177.1875 300.4375 C177.84730654 298.85179676 178.50810161 297.26650446 179.16992188 295.68164062 C180.79146343 291.79243864 182.39925651 287.89780567 184 284 C181.44722581 281.20766929 179.77639718 280.51032394 176 280 C175.38125 280.8353125 175.38125 280.8353125 174.75 281.6875 C168.93504927 289.37154203 162.9803008 297.0087552 154 301 C150.05674079 301.46391285 147.33330748 301.22220499 144 299 C142.38620037 295.77240073 142.41823433 292.49059404 143 289 C145 286.4375 145 286.4375 148 284 C149.38017925 282.8185236 150.75489984 281.63064995 152.125 280.4375 C152.78757812 279.87933594 153.45015625 279.32117188 154.1328125 278.74609375 C156.04766003 276.95543089 157.55880089 275.1886533 159 273 C159 272.34 159 271.68 159 271 C155.24991628 269.15949387 151.49620418 267.32667026 147.73901367 265.50073242 C146.46260998 264.8791104 145.18720323 264.25543678 143.9128418 263.62963867 C142.07601978 262.72808253 140.23568402 261.83407832 138.39453125 260.94140625 C137.28956299 260.40201416 136.18459473 259.86262207 135.04614258 259.30688477 C132.31511002 258.13519147 129.92604709 257.44045461 127 257 Z " fill="#000000" transform="translate(123,20)"/>
<path d="M0 0 C3.4375 1.22167969 3.4375 1.22167969 7 2.921875 C7.639375 3.22313293 8.27875 3.52439087 8.9375 3.83477783 C10.96454523 4.79404878 12.98197719 5.77191615 15 6.75 C16.35361098 7.39179831 17.70777392 8.03243383 19.0625 8.671875 C36.47314388 16.94628775 36.47314388 16.94628775 38 20 C38.93070865 27.32933062 37.37495612 30.81736507 32.921875 36.640625 C27.57600835 45.98502606 25.91444955 57.37026829 23.76677132 67.83446693 C23.27239518 70.23781765 22.76853301 72.63900959 22.2620697 75.0398407 C20.82531775 81.85516001 19.39949175 88.67266874 17.9934082 95.49438477 C17.12700763 99.69441905 16.24512059 103.89095582 15.35354424 108.08571434 C15.01962231 109.67157878 14.69149154 111.25867506 14.369524 112.84700966 C12.09276313 124.06796803 9.71931975 132.96900273 0 140 C-2.76193994 141.56378677 -5.10117744 142.3648922 -8.25 142.75 C-8.95640625 142.84796875 -9.6628125 142.9459375 -10.390625 143.046875 C-16.7348413 142.93290704 -22.46393924 140.53522109 -28.1328125 137.8828125 C-28.77314423 137.58438446 -29.41347595 137.28595642 -30.07321167 136.97848511 C-31.41418425 136.3515499 -32.75354188 135.72114949 -34.09130859 135.08740234 C-36.12310357 134.12589745 -38.16061439 133.17743652 -40.19921875 132.23046875 C-56.11764876 124.76470247 -56.11764876 124.76470247 -58 121 C-58.38670296 115.59940742 -57.47455959 111.90212479 -55.3515625 106.953125 C-55.06774719 106.28131699 -54.78393188 105.60950897 -54.49151611 104.91734314 C-53.54745336 102.68982931 -52.5861566 100.470185 -51.625 98.25 C-50.94937629 96.66372349 -50.27509012 95.07687671 -49.60205078 93.48950195 C-48.16255731 90.09763329 -46.71699067 86.70844201 -45.26757812 83.32080078 C-41.80329274 75.2097275 -38.41656089 67.0661799 -35.01980591 58.92666626 C-33.87752589 56.19354366 -32.73134143 53.46209335 -31.58374023 50.73120117 C-28.37861027 43.1016812 -25.17837308 35.471568 -22.06884766 27.80247498 C-20.88892595 24.89320519 -19.69953814 21.98784953 -18.50958252 19.08267212 C-17.9686505 17.75339463 -17.43281667 16.42202916 -16.90252686 15.08847046 C-16.18084698 13.27390699 -15.44049114 11.46680443 -14.69921875 9.66015625 C-14.29533936 8.65605713 -13.89145996 7.65195801 -13.4753418 6.61743164 C-10.16470951 0.74397662 -6.61880993 -0.78990646 0 0 Z " fill="#000000" transform="translate(336,327)"/>
<path d="M0 0 C2.875 1.5625 2.875 1.5625 5 4 C5.79929594 7.46361576 5.84159091 9.65284908 3.9140625 12.73828125 C2.04828608 14.9497472 0.0549328 16.96124778 -2 19 C-3.17150017 20.19440373 -4.34198918 21.38979969 -5.51171875 22.5859375 C-7.99430732 25.10732654 -10.48090851 27.62433097 -12.98828125 30.12109375 C-13.78552612 30.91664673 -13.78552612 30.91664673 -14.59887695 31.72827148 C-16.9263331 33.8407857 -18.15459278 34.01431415 -21.375 34.3125 C-25 34 -25 34 -27.4375 32.5 C-29.15648587 29.74962261 -29.76859509 27.63280069 -29.70239258 24.38037109 C-28.04951826 18.77886794 -22.77536446 14.94961507 -18.625 11.0625 C-17.62843901 10.09752702 -16.63362705 9.13074428 -15.640625 8.16210938 C-6.52066105 -0.63928049 -6.52066105 -0.63928049 0 0 Z " fill="#000000" transform="translate(388,214)"/>
<path d="M0 0 C2.56205842 3.84308764 2.67366765 5.4340304 2 10 C0.13914202 13.12008518 -2.40442446 15.48041204 -5 18 C-5.5686377 18.56299805 -6.13727539 19.12599609 -6.72314453 19.70605469 C-8.67582371 21.63221785 -10.64656876 23.53781229 -12.625 25.4375 C-13.27025635 26.065354 -13.9155127 26.69320801 -14.58032227 27.34008789 C-20.59008141 32.98463443 -20.59008141 32.98463443 -25 33 C-30.63855422 30.72289157 -30.63855422 30.72289157 -32 28 C-32.45387133 23.79575111 -32.50136108 21.71724921 -30.04394531 18.20166016 C-29.14772461 17.32300293 -28.25150391 16.4443457 -27.328125 15.5390625 C-26.84929871 15.06302582 -26.37047241 14.58698914 -25.87713623 14.0965271 C-24.86637615 13.09847802 -23.84721748 12.10887101 -22.8203125 11.12744141 C-21.25105239 9.6260069 -19.71026506 8.09939328 -18.171875 6.56640625 C-7.9516929 -3.45725778 -7.9516929 -3.45725778 0 0 Z " fill="#000000" transform="translate(413,226)"/>
</svg>
